<!-- adapted from Icons8 https://icons8.com/license/ -->
<svg version="1.0" xmlns="http://www.w3.org/2000/svg" width="25px" height="25px" viewBox="0 0 700.000000 700.000000" preserveAspectRatio="xMidYMid meet">
<metadata>
Created by potrace 1.12, written by Peter Selinger 2001-2015
</metadata>
<g transform="translate(0.000000,700.000000) scale(0.100000,-0.100000)" fill="#000000" stroke="none">
<path d="M2677 5823 c-53 -20 -71 -32 -84 -57 -9 -17 -26 -44 -37 -59 -21 -28
-21 -35 -24 -766 l-3 -737 35 -64 c28 -54 43 -71 92 -100 81 -48 137 -48 216
0 44 28 62 47 89 97 l34 63 0 727 0 728 -38 70 c-36 67 -40 71 -105 97 -82 33
-90 33 -175 1z"></path>
<path d="M1763 5136 c-61 -30 -78 -43 -110 -92 l-38 -57 0 -407 0 -406 38 -55
c29 -43 52 -63 102 -88 78 -40 107 -38 199 13 59 33 64 39 89 103 l27 68 0
360 0 360 -26 77 -27 77 -71 35 c-104 50 -103 50 -183 12z"></path>
<path d="M3590 5131 c-73 -38 -76 -40 -105 -107 l-30 -69 0 -375 0 -375 29
-63 c25 -54 37 -67 90 -99 48 -29 71 -37 111 -38 69 0 137 42 190 119 l40 58
0 402 c0 370 -1 404 -18 427 -10 13 -27 38 -38 56 -20 31 -148 104 -180 103
-8 -1 -48 -18 -89 -39z"></path>
<path d="M5835 3990 c-64 -6 -97 -15 -169 -50 -114 -54 -154 -85 -308 -239
-73 -71 -142 -131 -160 -138 -25 -9 -611 -12 -2498 -12 -1427 -1 -2478 -5
-2495 -10 -66 -20 -122 -50 -139 -75 -9 -15 -28 -31 -42 -36 -24 -9 -24 -11
-24 -130 0 -99 3 -120 15 -120 22 0 44 -40 56 -105 6 -33 21 -80 33 -105 13
-25 31 -78 40 -119 9 -41 25 -88 35 -105 10 -17 24 -58 31 -91 7 -33 23 -80
35 -105 12 -25 28 -72 35 -105 6 -33 20 -74 29 -91 10 -16 28 -60 40 -96 12
-37 29 -72 37 -79 9 -7 25 -32 36 -56 24 -51 138 -170 223 -233 82 -61 213
-126 283 -140 31 -7 90 -20 131 -31 72 -18 129 -19 1478 -19 929 0 1403 -3
1403 -10 0 -5 7 -10 15 -10 8 0 15 4 15 9 0 5 105 11 233 14 170 4 247 9 287
21 30 9 82 21 115 27 33 6 76 21 95 34 19 12 52 28 72 35 21 6 41 16 44 22 4
5 26 23 51 38 83 53 196 172 244 256 12 21 30 49 40 62 9 13 21 37 25 55 3 18
19 57 34 87 15 30 33 82 40 115 7 33 23 80 35 105 12 25 28 72 35 105 7 33 23
80 35 105 12 25 28 72 35 105 7 33 21 78 33 100 11 22 28 73 38 114 22 87 42
112 225 291 189 183 153 173 639 176 404 2 449 6 498 44 24 19 97 150 97 174
0 20 -61 140 -83 164 -53 58 -46 57 -502 58 -231 1 -456 -2 -500 -6z"></path>
</g>
</svg>
