<!-- purchased via thenounproject https://thenounproject.com/icon/web-page-4440811/ -->
<?xml version="1.0" encoding="UTF-8"?>
<svg width="1200pt" height="1200pt" version="1.1" viewBox="0 0 1200 1200" xmlns="http://www.w3.org/2000/svg">
 <g>
  <path d="m926.51 522.56c-4.9219-4.9258-11.117-8.3828-17.891-9.9844-6.7773-1.6055-13.863-1.2891-20.473 0.91016l-525.22 175.09c-8.7891 2.9336-16.18 9.0195-20.75 17.078-4.5703 8.0586-5.9922 17.527-3.9961 26.574 1.9961 9.0469 7.2695 17.035 14.809 22.422l100.12 71.551-143.74 143.78c-7.0312 7.0312-10.98 16.566-10.98 26.512 0 9.9414 3.9492 19.48 10.98 26.512l116.7 116.7c7.0312 7.0312 16.57 10.98 26.512 10.98 9.9453 0 19.48-3.9492 26.516-10.98l143.77-143.74 71.551 100.12c5.3906 7.5234 13.375 12.789 22.414 14.777 9.0391 1.9922 18.496 0.56641 26.547-3.9961 8.0547-4.5625 14.137-11.941 17.074-20.719l175.09-525.23 0.003906 0.003906c2.2031-6.6055 2.5234-13.691 0.92578-20.465-1.5938-6.7773-5.0469-12.973-9.9648-17.898zm-214.01 469.99-54.449-76.199c-6.4023-8.9766-16.426-14.684-27.414-15.602-11.004-0.98438-21.871 3.0078-29.625 10.875l-148.57 148.54-63.75-63.75 148.54-148.57v-0.003906c7.7812-7.793 11.742-18.617 10.832-29.594-0.91016-10.977-6.5977-20.996-15.559-27.406l-76.238-54.488 384.23-128.06z"/>
  <path d="m1038.8 37.5h-877.5c-32.801 0.058594-64.242 13.117-87.438 36.312s-36.254 54.637-36.312 87.438v727.5c0.058594 32.801 13.117 64.242 36.312 87.438s54.637 36.254 87.438 36.312h26.25c13.398 0 25.777-7.1484 32.477-18.75 6.6992-11.602 6.6992-25.898 0-37.5-6.6992-11.602-19.078-18.75-32.477-18.75h-26.25c-12.93 0-25.328-5.1367-34.473-14.277-9.1406-9.1445-14.277-21.543-14.277-34.473v-551.25h975v551.25c0 12.93-5.1367 25.328-14.277 34.473-9.1445 9.1406-21.543 14.277-34.473 14.277h-138.75c-13.398 0-25.777 7.1484-32.477 18.75-6.6992 11.602-6.6992 25.898 0 37.5 6.6992 11.602 19.078 18.75 32.477 18.75h138.75c32.801-0.058594 64.242-13.117 87.438-36.312s36.254-54.637 36.312-87.438v-727.5c-0.058594-32.801-13.117-64.242-36.312-87.438s-54.637-36.254-87.438-36.312zm48.75 225h-975v-101.25c0-12.93 5.1367-25.328 14.277-34.473 9.1445-9.1406 21.543-14.277 34.473-14.277h877.5c12.93 0 25.328 5.1367 34.473 14.277 9.1406 9.1445 14.277 21.543 14.277 34.473z"/>
  <path d="m262.5 187.5c0 20.711-16.789 37.5-37.5 37.5s-37.5-16.789-37.5-37.5 16.789-37.5 37.5-37.5 37.5 16.789 37.5 37.5"/>
  <path d="m375 187.5c0 20.711-16.789 37.5-37.5 37.5s-37.5-16.789-37.5-37.5 16.789-37.5 37.5-37.5 37.5 16.789 37.5 37.5"/>
  <path d="m487.5 187.5c0 20.711-16.789 37.5-37.5 37.5s-37.5-16.789-37.5-37.5 16.789-37.5 37.5-37.5 37.5 16.789 37.5 37.5"/>
 </g>
</svg>
