<!-- adapted from Icons8 https://icons8.com/license/ -->
<svg version="1.0" xmlns="http://www.w3.org/2000/svg" width="25px" height="25px" viewBox="0 0 700.000000 700.000000">
<metadata>
Created by potrace 1.12, written by Peter Selinger 2001-2015
</metadata>
<g transform="translate(0.000000,700.000000) scale(0.100000,-0.100000)" fill="#000000" stroke="none">
<path d="M4080 6871 c0 -125 -1 -129 -24 -144 -21 -14 -121 -17 -867 -19 -768
-3 -849 -5 -899 -21 -30 -10 -89 -24 -130 -33 -41 -9 -93 -26 -115 -39 -22
-12 -58 -28 -80 -35 -22 -7 -56 -22 -75 -34 -113 -73 -207 -137 -221 -153 -9
-10 -41 -41 -70 -70 -86 -82 -168 -181 -194 -233 -9 -19 -26 -44 -36 -55 -10
-11 -25 -37 -34 -58 -9 -21 -29 -57 -45 -79 -17 -23 -30 -47 -30 -54 0 -7 -11
-26 -25 -42 -14 -17 -32 -47 -41 -68 -9 -21 -26 -52 -39 -68 -12 -17 -26 -41
-30 -54 -3 -12 -17 -35 -31 -51 -13 -16 -31 -46 -40 -68 -9 -21 -27 -52 -40
-70 -13 -17 -24 -36 -24 -41 0 -6 -16 -33 -35 -62 -19 -29 -35 -56 -35 -60 0
-4 -15 -30 -33 -56 -18 -27 -38 -62 -46 -79 -13 -30 -39 -74 -96 -164 -17 -26
-37 -62 -45 -81 -8 -19 -24 -51 -37 -70 -12 -19 -29 -66 -38 -105 -8 -38 -22
-95 -30 -125 -12 -43 -15 -120 -15 -362 l0 -307 31 -95 c28 -83 38 -102 95
-164 35 -38 80 -77 101 -86 21 -9 54 -27 73 -39 l35 -22 2580 0 c2457 0 2582
1 2615 18 19 10 55 28 80 41 24 13 72 54 106 91 55 61 66 80 93 164 l31 96 0
316 c0 232 3 318 12 327 9 9 9 15 0 24 -7 7 -12 22 -12 34 0 12 -11 64 -24
115 -13 52 -27 117 -31 144 -4 28 -18 75 -31 106 -13 31 -28 87 -34 124 -6 37
-21 93 -34 125 -13 32 -29 91 -36 132 -7 40 -22 98 -35 128 -12 30 -28 86 -34
124 -7 38 -23 95 -35 125 -13 31 -29 90 -36 131 -7 41 -23 93 -35 115 -13 22
-28 57 -35 78 -19 59 -104 186 -190 282 -57 64 -149 143 -191 165 -13 7 -35
23 -49 35 -14 12 -47 30 -74 39 -27 9 -57 23 -66 31 -9 8 -48 22 -86 31 -38 9
-94 24 -124 34 -31 10 -100 22 -153 26 -127 9 -127 8 -127 171 l0 123 -440 0
-440 0 0 -129z m857 -770 c107 -28 201 -110 270 -236 37 -69 38 -72 38 -175 0
-84 -4 -112 -19 -140 -10 -19 -27 -53 -38 -75 -32 -65 -106 -133 -193 -178
l-80 -42 -980 0 -980 0 -68 36 c-67 36 -135 95 -190 163 -31 39 -67 161 -67
228 0 44 27 173 42 202 43 81 161 188 228 206 19 5 51 13 70 18 21 6 397 10
965 11 880 1 934 0 1002 -18z"></path>
<path d="M4973 3198 c-4 -7 -9 -173 -11 -368 l-4 -355 -46 -48 c-26 -26 -131
-130 -233 -230 -190 -187 -309 -316 -367 -403 -18 -27 -44 -65 -58 -84 -13
-19 -33 -55 -45 -80 -11 -25 -33 -72 -50 -104 -16 -32 -29 -68 -29 -80 0 -12
-12 -68 -26 -126 -22 -91 -25 -118 -19 -203 3 -54 10 -109 15 -122 5 -14 16
-66 25 -117 9 -53 26 -110 39 -133 13 -22 29 -58 36 -80 12 -37 39 -83 107
-180 43 -61 241 -253 283 -275 21 -11 41 -24 44 -29 12 -19 189 -100 243 -111
39 -8 66 -21 86 -41 l29 -29 256 0 c242 0 258 1 269 19 13 20 75 46 134 56 21
3 53 16 72 29 19 13 51 29 71 36 20 6 49 22 64 34 15 13 41 30 57 39 42 22
199 170 248 235 50 64 100 143 123 192 8 19 29 60 44 91 16 31 34 87 40 125 6
38 18 96 27 129 8 33 16 105 17 160 2 177 -73 427 -169 565 -14 19 -39 57 -57
83 -61 89 -190 231 -372 409 -100 97 -202 198 -228 225 l-46 47 -4 352 c-2
279 -6 354 -17 367 -12 15 -44 17 -277 17 -199 0 -265 -3 -271 -12z m-18
-1608 c8 -14 8 -867 0 -880 -8 -14 -51 -13 -78 2 -12 6 -39 29 -60 50 -34 34
-55 68 -112 178 -7 14 -18 63 -23 110 -14 114 2 208 46 275 18 27 32 52 32 57
0 14 90 141 128 181 37 38 56 45 67 27z m667 -36 c24 -26 48 -59 54 -74 7 -15
17 -31 23 -35 6 -3 25 -32 42 -63 16 -31 38 -71 49 -88 52 -81 41 -298 -21
-409 -19 -32 -61 -88 -95 -122 -49 -51 -67 -63 -92 -63 -17 0 -33 4 -37 10 -7
12 -7 868 0 880 12 20 36 9 77 -36z"></path>
</g>
</svg>
